<svg width="192" height="24" viewBox="0 0 192 24" fill="none" xmlns="http://www.w3.org/2000/svg">
<g clip-path="url(#clip0_3020_8626)">
<path d="M17.2035 12.262C17.1825 12.2306 17.1563 12.2044 17.1354 12.1834C16.779 11.7118 16.386 11.2873 15.9668 10.9258C15.7048 10.7004 15.4271 10.4961 15.1336 10.3127C15.2384 10.2183 15.338 10.124 15.4376 10.0245C15.71 9.74672 15.9563 9.43755 16.1764 9.09694C16.7948 8.14323 17.1039 7.069 17.1039 5.90044C17.1039 4.2655 16.5275 2.86114 15.3904 1.72926C14.2428 0.581659 12.8332 0 11.2035 0H1.31004C0.487336 0 0 0.487336 0 1.28908V22.6795C0 23.4865 0.487336 23.9686 1.31004 23.9686H11.2035C13.2629 23.9686 15.0236 23.2349 16.4279 21.7939C17.1459 21.0917 17.6908 20.29 18.0576 19.4201C18.4245 18.545 18.6079 17.5913 18.6079 16.5799C18.6079 15.0079 18.1362 13.5563 17.2035 12.262ZM14.5991 19.9598C13.6402 20.9188 12.5293 21.3852 11.2035 21.3852H2.59913V2.60437H11.2035C12.131 2.60437 12.8961 2.91354 13.5406 3.55808C14.2009 4.2393 14.5205 5.00437 14.5205 5.90568C14.5205 6.72838 14.2271 7.45677 13.6297 8.14323C13.614 8.16419 13.593 8.19039 13.5825 8.21135C13.5825 8.21135 13.5721 8.22183 13.5668 8.22707C12.9642 8.83493 12.1205 9.13886 11.2611 9.13886H8.58865C7.90218 9.13886 7.29432 9.64192 7.2262 10.3231C7.15284 11.1039 7.76594 11.7642 8.53101 11.7642H10.931C11.0044 11.7799 11.5546 11.7956 11.5546 11.7956C12.8122 11.8638 13.8445 12.3511 14.7092 13.2891C15.579 14.2376 16.0035 15.317 16.0035 16.5904C16.0035 17.8638 15.5424 19.0218 14.5939 19.9703" fill="#2C4F58"/>
<path d="M150.907 3.5214C148.601 1.18428 145.782 0 142.522 0C139.263 0 136.444 1.18428 134.138 3.5214C131.832 5.83755 130.669 8.68297 130.669 11.9843C130.669 15.2856 131.838 18.131 134.138 20.4472C136.444 22.7843 139.263 23.9686 142.522 23.9686C145.782 23.9686 148.601 22.7843 150.907 20.4472C153.202 18.1415 154.365 15.2961 154.365 11.9843C154.365 8.67249 153.202 5.82707 150.912 3.5214M142.527 21.3852C140.017 21.3852 137.811 20.4524 135.977 18.6183C134.169 16.7895 133.252 14.5572 133.252 11.9843C133.252 9.41135 134.169 7.17904 135.972 5.35022C137.796 3.52664 140.002 2.59913 142.522 2.59913C145.043 2.59913 147.259 3.5214 149.057 5.35022C150.875 7.16856 151.792 9.40087 151.792 11.9843C151.792 14.5677 150.87 16.8 149.051 18.6183C147.249 20.4524 145.048 21.3852 142.522 21.3852" fill="#2C4F58"/>
<path d="M187.756 3.5214C185.45 1.18428 182.631 0 179.371 0C176.112 0 173.293 1.18428 170.987 3.5214C168.687 5.83755 167.518 8.68297 167.518 11.9843C167.518 15.2856 168.687 18.131 170.987 20.4472C173.293 22.7843 176.112 23.9686 179.371 23.9686C182.631 23.9686 185.45 22.7843 187.756 20.4472C190.051 18.1415 191.214 15.2961 191.214 11.9843C191.214 8.67249 190.051 5.82707 187.761 3.5214M179.377 21.3852C176.867 21.3852 174.66 20.4524 172.826 18.6183C171.019 16.7895 170.101 14.5572 170.101 11.9843C170.101 9.41135 171.019 7.17904 172.821 5.35022C174.65 3.52664 176.851 2.59913 179.371 2.59913C181.892 2.59913 184.108 3.5214 185.906 5.35022C187.724 7.16856 188.641 9.40087 188.641 11.9843C188.641 14.5677 187.719 16.8 185.906 18.6183C184.098 20.4524 181.897 21.3852 179.371 21.3852" fill="#2C4F58"/>
<path d="M82.5641 12.262C82.5431 12.2306 82.5169 12.2044 82.4959 12.1834C82.1396 11.7118 81.7466 11.2873 81.3274 10.9258C81.0654 10.7004 80.7877 10.4961 80.4942 10.3127C80.599 10.2183 80.6986 10.124 80.7929 10.0245C81.0654 9.74672 81.3169 9.43755 81.5318 9.09694C82.1501 8.14323 82.4593 7.069 82.4593 5.90044C82.4593 4.2655 81.8828 2.86114 80.7457 1.72926C79.5981 0.581659 78.1885 0 76.5536 0H66.6601C65.8427 0 65.3501 0.487336 65.3501 1.28908V22.6795C65.3501 23.4865 65.8374 23.9686 66.6601 23.9686H76.5536C78.613 23.9686 80.3737 23.2349 81.778 21.7939C82.4959 21.0917 83.0409 20.29 83.4077 19.4201C83.7746 18.545 83.958 17.5913 83.958 16.5799C83.958 15.0079 83.4863 13.5563 82.5536 12.262M79.9492 19.9598C78.9903 20.9188 77.8794 21.3852 76.5536 21.3852H67.9545V2.60437H76.5536C77.4811 2.60437 78.2462 2.91354 78.8907 3.55808C79.551 4.2393 79.8706 5.00437 79.8706 5.90568C79.8706 6.72838 79.5772 7.45677 78.9798 8.14323C78.9641 8.16419 78.9431 8.19039 78.9326 8.21135C78.9326 8.21135 78.9222 8.22183 78.9169 8.22707C78.3143 8.83493 77.4706 9.13886 76.6112 9.13886H73.9387C73.2523 9.13886 72.6444 9.64192 72.5763 10.3231C72.5029 11.1039 73.116 11.7642 73.8811 11.7642H76.2811C76.3545 11.7799 76.9047 11.7956 76.9047 11.7956C78.1623 11.8638 79.1946 12.3511 80.0593 13.2891C80.9291 14.2376 81.3536 15.317 81.3536 16.5904C81.3536 17.8638 80.8925 19.0218 79.944 19.9703" fill="#2C4F58"/>
<path d="M51.6417 23.6857C51.191 24.0315 50.5465 24.0734 50.0906 23.7852C50.0591 23.7643 50.0277 23.7433 50.0015 23.7224C49.991 23.7171 49.9805 23.7119 49.9753 23.7014C49.9491 23.6804 49.9229 23.6542 49.9019 23.6333C49.8705 23.6018 49.8443 23.5756 49.8181 23.5442C49.7971 23.5127 49.7709 23.4865 49.75 23.4551C49.6557 23.3293 49.5823 23.1983 49.5142 23.0569C49.4827 22.9835 49.4513 22.9154 49.4198 22.842C49.4198 22.842 49.4198 22.842 49.4198 22.8368C49.2155 22.3337 49.0111 21.8411 48.8015 21.3433C48.6862 21.0603 48.5709 20.7826 48.4504 20.4996C48.3037 20.1538 48.1622 19.8027 48.0155 19.4516C47.8373 19.0167 47.6539 18.5817 47.4757 18.152C47.4443 18.0682 47.4076 17.9844 47.3709 17.9005L45.9089 14.3896H42.943C42.2198 14.3896 41.6329 13.8027 41.6329 13.0796C41.6329 12.3564 42.2198 11.7695 42.943 11.7695H44.819L41.9578 4.89441C40.7683 7.78698 39.584 10.6586 38.405 13.504C37.7709 15.0499 37.1264 16.6062 36.4819 18.1678C36.2513 18.7337 36.0155 19.2996 35.7849 19.8708C35.6958 20.0857 35.6067 20.3005 35.5177 20.5206C35.1928 21.3066 34.8731 22.0822 34.5535 22.8682C34.4329 23.1512 34.3019 23.4394 34.0766 23.6595C33.6312 24.1049 32.8557 24.1101 32.3369 23.7171C31.8495 23.3451 31.7657 22.7739 31.9439 22.2708L32.929 19.8708H32.9133L40.7002 0.922352C40.9517 0.393095 41.3971 0.120605 41.9526 0.120605C42.5081 0.120605 42.922 0.393095 43.1631 0.896151L50.3369 18.1206C50.3683 18.194 50.3998 18.2673 50.4312 18.3459L50.8033 19.2368L50.9867 19.6769C51.0129 19.7398 51.0391 19.8079 51.0653 19.8656C51.2434 20.29 51.4216 20.7145 51.5945 21.1389C51.7046 21.401 51.8775 21.8569 51.9194 21.9669L51.9666 22.0822C52.0137 22.2079 52.0661 22.3599 52.0976 22.5119C52.1028 22.5433 52.1081 22.5695 52.1081 22.601C52.1447 22.9992 52.0085 23.4027 51.6364 23.6804" fill="#2C4F58"/>
<path d="M116.919 23.6857C116.468 24.0315 115.824 24.0734 115.368 23.7852C115.336 23.7643 115.305 23.7433 115.279 23.7224C115.268 23.7171 115.258 23.7119 115.252 23.7014C115.226 23.6804 115.2 23.6542 115.179 23.6333C115.148 23.6018 115.121 23.5756 115.095 23.5442C115.074 23.5127 115.048 23.4865 115.027 23.4551C114.938 23.3293 114.859 23.1983 114.797 23.0569C114.765 22.9835 114.734 22.9154 114.702 22.842C114.702 22.842 114.702 22.842 114.702 22.8368C114.498 22.3337 114.293 21.8411 114.084 21.3433C113.969 21.0603 113.853 20.7826 113.733 20.4996C113.586 20.1538 113.445 19.8027 113.298 19.4516C113.12 19.0167 112.936 18.5817 112.758 18.152C112.727 18.0682 112.69 17.9844 112.653 17.9005L111.191 14.3896H108.225C107.502 14.3896 106.915 13.8027 106.915 13.0796C106.915 12.3564 107.502 11.7695 108.225 11.7695H110.101L107.24 4.89441C106.051 7.78698 104.866 10.6586 103.693 13.504C103.059 15.0499 102.414 16.6062 101.769 18.1678C101.539 18.7337 101.303 19.2996 101.073 19.8708C100.983 20.0857 100.894 20.3005 100.805 20.5206C100.48 21.3066 100.161 22.0822 99.8411 22.8682C99.7258 23.1512 99.5895 23.4394 99.3642 23.6595C98.9188 24.1049 98.1433 24.1101 97.6245 23.7171C97.1371 23.3451 97.0533 22.7739 97.2315 22.2708L98.2166 19.8708H98.2009L105.977 0.922352C106.229 0.393095 106.674 0.120605 107.23 0.120605C107.785 0.120605 108.199 0.393095 108.44 0.896151L115.614 18.1206C115.645 18.194 115.677 18.2673 115.708 18.3459L116.08 19.2368L116.264 19.6769C116.29 19.7398 116.316 19.8079 116.342 19.8656C116.521 20.29 116.693 20.7145 116.872 21.1389C116.982 21.401 117.155 21.8569 117.202 21.9669L117.249 22.0822C117.296 22.2079 117.348 22.3599 117.38 22.5119C117.385 22.5433 117.39 22.5695 117.396 22.601C117.432 22.9992 117.296 23.4027 116.924 23.6804" fill="#2C4F58"/>
</g>
<defs>
<clipPath id="clip0_3020_8626">
<rect width="191.209" height="24" fill="white"/>
</clipPath>
</defs>
</svg>
